<svg xmlns="http://www.w3.org/2000/svg" viewBox="0 0 106.71 52.26"><defs><style>.cls-1{fill:#fb4e2b;}.cls-2{fill:#253f66;}.cls-3{fill:#00884f;}</style></defs><title>Asset 2shezvar</title><g id="Layer_2" data-name="Layer 2"><g id="Layer_1-2" data-name="Layer 1"><path class="cls-1" d="M83.14,6.14q-10.17,0-20.35,0a3,3,0,0,1-3.2-2.38A3,3,0,0,1,61,.45a3.87,3.87,0,0,1,2-.44q20.1,0,40.2,0c2.25,0,3.51,1.24,3.46,3.21s-1.36,2.92-3.59,2.92Q93.13,6.16,83.14,6.14Z"/><path class="cls-1" d="M102.17,11.91a3,3,0,0,1-.37,1.44q-7.86,18.41-15.73,36.8a3.07,3.07,0,1,1-5.63-2.38q7.88-18.47,15.78-36.91a3,3,0,0,1,3.62-2A3.07,3.07,0,0,1,102.17,11.91Z"/><path class="cls-2" d="M77.46,39.18a3,3,0,0,1-2.73-4.43c1.65-3.94,3.35-7.86,5-11.79s3.39-7.93,5.1-11.89c.86-2,2.45-2.73,4.18-2s2.25,2.43,1.41,4.4c-3.33,7.82-6.69,15.64-10,23.47A3.18,3.18,0,0,1,77.46,39.18Z"/><path class="cls-3" d="M76.6,8.85a2.93,2.93,0,0,1,2.89,4c-1.55,3.89-3.2,7.73-4.88,11.57A3,3,0,0,1,69.06,22c1.27-3.14,2.63-6.26,4-9.39.29-.69.57-1.38.9-2.05A2.82,2.82,0,0,1,76.6,8.85Z"/><path class="cls-2" d="M3,10.19H0V7.88H8.49v2.31h-3v7.55H3Z"/><path class="cls-2" d="M11.85,7.88h2.57v9.86H11.85Z"/><path class="cls-2" d="M20.75,10.19h-3V7.88h8.49v2.31h-3v7.55H20.75Z"/><path class="cls-2" d="M34.23,16.92H30.69l-.36.82H27.56l4.49-10h.82l4.48,10H34.59Zm-1.76-4.35-.87,2.29h1.72Z"/><path class="cls-2" d="M49.34,7.88v10h-.82l-5.35-5.19v5H40.6V7.7h.82l5.35,5.11V7.88Z"/><path class="cls-2" d="M3,23.83H0V21.52H8.49v2.31h-3v7.55H3Z"/><path class="cls-2" d="M17.22,31.38,15,28.32H13.93v3.06H11.36V21.52h3.87c2.2,0,3.81,1.34,3.81,3.39a3.21,3.21,0,0,1-1.55,2.81l2.6,3.66Zm-3.29-5.3h1.32a1.11,1.11,0,0,0,1.18-1.17,1.09,1.09,0,0,0-1.18-1.15H13.93Z"/><path class="cls-2" d="M22.48,21.52h2.57v5.87a1.8,1.8,0,1,0,3.59,0V21.52h2.57V27.2a4.2,4.2,0,0,1-4.36,4.36,4.17,4.17,0,0,1-4.37-4.36Z"/><path class="cls-2" d="M35.88,28a2.58,2.58,0,0,0,2.19,1.27c.68,0,1-.23,1-.71s-.22-.57-1-.91l-1-.45c-1.63-.72-2.49-1.65-2.49-3,0-1.75,1.43-2.91,3.45-2.91a3.56,3.56,0,0,1,3.38,2l-1.72,1.31a1.86,1.86,0,0,0-1.63-1.05c-.54,0-.88.21-.88.63s.21.56.85.81l1.13.48c1.72.72,2.53,1.58,2.53,3,0,1.92-1.57,3.08-3.62,3.08a4.29,4.29,0,0,1-3.93-2.21Z"/><path class="cls-2" d="M47,23.83h-3V21.52h8.49v2.31h-3v7.55H47Z"/><path class="cls-2" d="M7.65,44.38H3V34.52H6.6a3,3,0,0,1,3.33,2.91,2.4,2.4,0,0,1-.59,1.66A2.44,2.44,0,0,1,11,41.45,3.06,3.06,0,0,1,7.65,44.38ZM5.51,36.69v1.73h.93a.87.87,0,1,0,0-1.73Zm2,3.79h-2v1.74h2c.62,0,1-.29,1-.87S8.1,40.48,7.48,40.48Z"/><path class="cls-2" d="M20.28,43.56H16.74l-.36.82H13.61l4.49-10h.82l4.48,10H20.64Zm-1.77-4.35-.86,2.29h1.72Z"/><path class="cls-2" d="M35.51,34.52v10h-.82l-5.35-5.18v5H26.77v-10h.82l5.35,5.11V34.52Z"/><path class="cls-2" d="M46.15,44.38,42.4,39.47v4.91H39.83V34.52H42.4V39l3.26-4.47h3l-3.39,4.69,3.94,5.17Z"/></g></g></svg>