<svg xmlns="http://www.w3.org/2000/svg" width="134.153" height="31.015" viewBox="0 0 134.153 31.015">
  <g id="Group_55" data-name="Group 55" transform="translate(-264.99 -282.448)">
    <path id="Path_469" data-name="Path 469" d="M264.99,308.108a.223.223,0,0,1,.249-.256h6.2a.224.224,0,0,1,.25.256v1.446a.224.224,0,0,1-.25.256h-2.029v6.279a.224.224,0,0,1-.256.25h-1.649a.221.221,0,0,1-.25-.25V309.81h-2.018a.223.223,0,0,1-.249-.256Z" transform="translate(0 -14.464)" fill="#fff"/>
    <path id="Path_470" data-name="Path 470" d="M289.475,308.108a.224.224,0,0,1,.25-.256h1.708a.223.223,0,0,1,.25.256v7.981a.221.221,0,0,1-.25.25h-1.708a.221.221,0,0,1-.25-.25Z" transform="translate(-13.94 -14.464)" fill="#fff"/>
    <path id="Path_471" data-name="Path 471" d="M303.528,308.108a.223.223,0,0,1,.25-.256h6.2a.224.224,0,0,1,.251.256v1.446a.224.224,0,0,1-.251.256H307.95v6.279a.224.224,0,0,1-.256.25h-1.649a.221.221,0,0,1-.25-.25V309.81h-2.018a.223.223,0,0,1-.25-.256Z" transform="translate(-21.941 -14.464)" fill="#fff"/>
    <path id="Path_472" data-name="Path 472" d="M326.173,308.107a.356.356,0,0,1,.351-.256h1.4a.354.354,0,0,1,.345.256l3.118,7.981q.1.249-.161.25h-1.7a.33.33,0,0,1-.339-.25l-.4-1.119h-3.119l-.387,1.119a.334.334,0,0,1-.345.25h-1.7q-.256,0-.161-.25Zm1.035,2.428-.9,2.595h1.821Z" transform="translate(-33.054 -14.463)" fill="#fff"/>
    <path id="Path_473" data-name="Path 473" d="M352.826,311.143v4.946c0,.166-.093.25-.28.25h-1.6a.221.221,0,0,1-.25-.25v-7.981a.274.274,0,0,1,.062-.178.226.226,0,0,1,.187-.078H352.8a.4.4,0,0,1,.227.069.659.659,0,0,1,.178.187l2.863,4.63v-4.63a.273.273,0,0,1,.063-.178.233.233,0,0,1,.193-.078h1.589a.313.313,0,0,1,.185.072.221.221,0,0,1,.1.184v7.981c0,.166-.093.25-.28.25h-1.672a.467.467,0,0,1-.411-.25Z" transform="translate(-48.799 -14.463)" fill="#fff"/>
    <path id="Path_474" data-name="Path 474" d="M463.807,308.108a.224.224,0,0,1,.25-.256h6.2a.224.224,0,0,1,.251.256v1.446a.224.224,0,0,1-.251.256H468.23v6.279a.224.224,0,0,1-.256.25h-1.649a.221.221,0,0,1-.25-.25V309.81h-2.018a.224.224,0,0,1-.25-.256Z" transform="translate(-113.195 -14.464)" fill="#fff"/>
    <path id="Path_475" data-name="Path 475" d="M488.279,308.108a.286.286,0,0,1,.06-.175.214.214,0,0,1,.185-.081h3.79a2.463,2.463,0,0,1,1.1.244,2.77,2.77,0,0,1,.854.643,2.987,2.987,0,0,1,.75,1.964,2.325,2.325,0,0,1-.1.672,2.82,2.82,0,0,1-.286.637,3.243,3.243,0,0,1-.441.568,3.1,3.1,0,0,1-.565.462l1.636,3.047a.177.177,0,0,1,.012.167.15.15,0,0,1-.155.084h-2.059a.27.27,0,0,1-.178-.051.634.634,0,0,1-.131-.188l-1.351-2.583h-.922v2.571a.221.221,0,0,1-.249.25h-1.708a.219.219,0,0,1-.245-.25Zm2.2,1.512v2.071h1.268a.954.954,0,0,0,.414-.09,1.048,1.048,0,0,0,.53-.559,1.018,1.018,0,0,0,.074-.381,1,1,0,0,0-.074-.375,1.1,1.1,0,0,0-.534-.575.907.907,0,0,0-.41-.092Z" transform="translate(-127.128 -14.464)" fill="#fff"/>
    <path id="Path_476" data-name="Path 476" d="M514.772,312.952a1.944,1.944,0,0,0,.116.714,1.289,1.289,0,0,0,.309.482,1.2,1.2,0,0,0,.446.271,1.621,1.621,0,0,0,.527.086,1.465,1.465,0,0,0,.542-.1,1.266,1.266,0,0,0,.447-.3,1.469,1.469,0,0,0,.3-.485,1.833,1.833,0,0,0,.113-.67v-4.844a.257.257,0,0,1,.071-.179.248.248,0,0,1,.19-.077H519.5a.271.271,0,0,1,.208.077.257.257,0,0,1,.071.179v4.815a4.219,4.219,0,0,1-.294,1.678,2.876,2.876,0,0,1-.792,1.092,3.05,3.05,0,0,1-1.152.6,5.139,5.139,0,0,1-1.375.181,5.06,5.06,0,0,1-1.375-.184,3.036,3.036,0,0,1-1.152-.6,2.935,2.935,0,0,1-.791-1.1,4.168,4.168,0,0,1-.295-1.661v-4.815a.274.274,0,0,1,.063-.179.2.2,0,0,1,.164-.077h1.744c.1,0,.168.025.2.075a.35.35,0,0,1,.045.181Z" transform="translate(-140.95 -14.464)" fill="#fff"/>
    <path id="Path_477" data-name="Path 477" d="M538.021,314.645a.375.375,0,0,1-.063-.122.21.21,0,0,1,0-.128.347.347,0,0,1,.092-.137l.988-.941a.248.248,0,0,1,.173-.083.288.288,0,0,1,.134.036.652.652,0,0,1,.134.1c.108.087.227.183.36.289a3.8,3.8,0,0,0,.425.292,2.781,2.781,0,0,0,.476.224,1.512,1.512,0,0,0,.512.089,1.449,1.449,0,0,0,.475-.065.77.77,0,0,0,.292-.173.548.548,0,0,0,.145-.253,1.182,1.182,0,0,0,.039-.306.464.464,0,0,0-.125-.319,1.215,1.215,0,0,0-.31-.244,2.867,2.867,0,0,0-.387-.182c-.135-.051-.254-.1-.357-.131a8.614,8.614,0,0,1-1.211-.518,3.849,3.849,0,0,1-.878-.619,2.387,2.387,0,0,1-.534-.75,2.233,2.233,0,0,1-.18-.91,2.048,2.048,0,0,1,.226-.964,2.172,2.172,0,0,1,.634-.741,3.067,3.067,0,0,1,.975-.476,4.4,4.4,0,0,1,1.259-.17,3.943,3.943,0,0,1,.782.081,4.228,4.228,0,0,1,.762.229,4.109,4.109,0,0,1,.684.354,2.64,2.64,0,0,1,.539.45.407.407,0,0,1,.119.262.385.385,0,0,1-.137.261l-.874.935a.266.266,0,0,1-.185.09.279.279,0,0,1-.149-.045,1.342,1.342,0,0,1-.149-.11,2.953,2.953,0,0,0-.636-.447,1.635,1.635,0,0,0-.75-.167,1.97,1.97,0,0,0-.321.027.951.951,0,0,0-.289.1.612.612,0,0,0-.209.179.451.451,0,0,0-.08.271.44.44,0,0,0,.089.276.863.863,0,0,0,.261.214,2.984,2.984,0,0,0,.42.19c.165.062.35.126.556.193q.608.2,1.11.423a3.563,3.563,0,0,1,.863.521,2.1,2.1,0,0,1,.559.717,2.334,2.334,0,0,1,.2,1.012,2.577,2.577,0,0,1-.247,1.137,2.546,2.546,0,0,1-.684.872,3.166,3.166,0,0,1-1.033.556,4.116,4.116,0,0,1-1.3.2,3.373,3.373,0,0,1-.875-.116,4.635,4.635,0,0,1-.836-.312,4.906,4.906,0,0,1-.756-.459,5,5,0,0,1-.64-.559c-.035-.04-.069-.079-.1-.119" transform="translate(-155.407 -14.227)" fill="#fff"/>
    <path id="Path_478" data-name="Path 478" d="M560.935,308.108a.224.224,0,0,1,.25-.256h6.2a.224.224,0,0,1,.251.256v1.446a.224.224,0,0,1-.251.256h-2.028v6.279a.224.224,0,0,1-.256.25h-1.649a.221.221,0,0,1-.249-.25V309.81h-2.018a.224.224,0,0,1-.25-.256Z" transform="translate(-168.494 -14.464)" fill="#fff"/>
    <path id="Path_479" data-name="Path 479" d="M408.544,282.448H384.064a1.793,1.793,0,1,0,0,3.587h24.481a1.793,1.793,0,1,0,0-3.587" transform="translate(-66.772)" fill="#fff"/>
    <path id="Path_480" data-name="Path 480" d="M422.728,294.71l-.005,0a1.792,1.792,0,0,0-2.351.944l-9.5,22.213a1.791,1.791,0,0,0,.944,2.351h0a1.792,1.792,0,0,0,2.351-.943l9.5-22.213a1.79,1.79,0,0,0-.944-2.351" transform="translate(-82.974 -6.898)" fill="#fff"/>
    <path id="Path_481" data-name="Path 481" d="M412.49,297.06a1.79,1.79,0,0,0-.944-2.351l-.005,0a1.791,1.791,0,0,0-2.351.944l-6.18,14.442a1.792,1.792,0,0,0,.944,2.351l0,0a1.791,1.791,0,0,0,2.35-.944Z" transform="translate(-78.499 -6.898)" fill="#fff"/>
    <path id="Path_482" data-name="Path 482" d="M401.416,297.06a1.791,1.791,0,0,0-.944-2.351l-.005,0a1.791,1.791,0,0,0-2.35.944l-2.847,6.713a1.79,1.79,0,0,0,.944,2.35l0,0a1.791,1.791,0,0,0,2.351-.944Z" transform="translate(-74.092 -6.898)" fill="#fff"/>
  </g>
</svg>
